<svg width="1583" height="1301" viewBox="0 0 1583 1301" fill="none" xmlns="http://www.w3.org/2000/svg">
<ellipse cx="791.5" cy="1227" rx="791.5" ry="74" fill="#943B00" fill-opacity="0.25"/>
<rect x="148" y="40" width="1288" height="872" rx="6" fill="#363636" stroke="#FB4E0C" stroke-width="80" stroke-linejoin="round"/>
<rect x="706" y="912" width="172" height="210" fill="#FB4E0C"/>
<path d="M794.089 1096.57C792.721 1096.2 791.279 1096.2 789.911 1096.57L577.796 1153.95C572.964 1155.25 570.503 1160.63 572.567 1165.19C591.523 1207.06 601.905 1244.62 653.87 1254.29C763.971 1274.78 822.465 1268 927.084 1254.68C929.027 1254.43 930.841 1253.47 932.129 1252L1007.08 1166.1C1010.97 1161.65 1008.85 1154.66 1003.15 1153.12L794.089 1096.57Z" fill="#FB4E0C"/>
<path d="M789.911 1096.57C791.279 1096.2 792.721 1096.2 794.089 1096.57L1006.2 1153.95C1011.04 1155.25 1013.5 1160.63 1011.43 1165.19C992.477 1207.06 982.095 1244.62 930.13 1254.29C820.029 1274.78 761.535 1268 656.916 1254.68C654.973 1254.43 653.159 1253.47 651.871 1252L576.915 1166.1C573.029 1161.65 575.148 1154.66 580.854 1153.12L789.911 1096.57Z" fill="#FB4E0C"/>
</svg>
