<svg width="312" height="426" viewBox="0 0 312 426" fill="none" xmlns="http://www.w3.org/2000/svg">
<path d="M34.5 150.645C34.5 143.9 41.6324 138.982 48.8791 140.815C60.5677 143.772 71.167 143.41 84.0745 139.952C90.8391 138.14 97.5 142.915 97.5 149.476V317.359C97.5 320.609 95.8604 323.6 93.158 325.193C82.6048 331.416 74.1685 334.446 65.9109 334.499C57.6675 334.552 49.2365 331.639 38.6955 325.224C36.0764 323.63 34.5 320.691 34.5 317.5V150.645Z" fill="#FF9327" stroke="#FB4E0C" stroke-width="5"/>
<path d="M35.5 356.456C35.5 352.385 37.9176 349.232 41.6417 347.423C45.4123 345.592 50.2833 345.296 54.4817 346.956C63.2334 350.415 71.503 350.078 80.4216 346.133C84.4182 344.365 89.0381 344.611 92.6212 346.388C96.16 348.143 98.5 351.265 98.5 355.283V400.505C98.5 403.052 97.4872 405.469 95.6829 407.127C83.0456 418.742 72.8273 422.988 63.9207 422.456C54.9907 421.922 46.6389 416.545 37.8257 407.128C36.3195 405.519 35.5 403.328 35.5 401.024V356.456Z" fill="#FF9A5C" stroke="#FB4E0C" stroke-width="5"/>
<path d="M56.053 55.9594C59.5361 47.1664 71.9574 47.0997 75.5348 55.8548L96.4034 106.927C98.7225 112.603 95.7191 119.015 89.9655 120.674C80.4327 123.423 73.5742 124.665 66.6756 124.483C59.7623 124.3 52.6327 122.682 42.5591 119.443C36.9679 117.646 34.0938 111.393 36.2966 105.833L56.053 55.9594Z" fill="#FF9A5C" stroke="#FB4E0C" stroke-width="5"/>
<path d="M56.0055 61.1914C59.132 51.4829 72.868 51.4829 75.9945 61.1914L77.1506 64.7814C79.3337 71.5604 74.2779 78.5 67.1561 78.5H64.8439C57.7221 78.5 52.6663 71.5604 54.8494 64.7814L56.0055 61.1914Z" fill="#FB4E0C" stroke="#FB4E0C" stroke-width="5"/>
<path d="M285 80L147 238.5L294.5 386" stroke="#FB4E0C" stroke-width="35" stroke-linecap="round"/>
</svg>
