<svg width="1583" height="1046" viewBox="0 0 1583 1046" fill="none" xmlns="http://www.w3.org/2000/svg">
<ellipse cx="791.5" cy="982" rx="791.5" ry="64" fill="#943B00" fill-opacity="0.25"/>
<rect x="237" y="605" width="1132" height="310" rx="8" fill="#F6E4CB"/>
<path d="M1422 623.5H239C236.791 623.5 235 625.291 235 627.5V927.5C235 929.709 236.791 931.5 239 931.5H1422" stroke="#FB4E0C" stroke-width="72" stroke-linecap="round"/>
<line x1="1331" y1="779" x2="288" y2="779" stroke="#FF9A5C" stroke-width="16"/>
<line x1="1331" y1="717" x2="288" y2="717" stroke="#FF9A5C" stroke-width="16"/>
<line x1="1331" y1="841" x2="288" y2="841" stroke="#FF9A5C" stroke-width="16"/>
<rect x="145.847" y="289" width="1045.22" height="249.234" rx="8" fill="#F6E4CB"/>
<path d="M1240 303.874H148C145.791 303.874 144 305.665 144 307.874V547.5C144 549.709 145.791 551.5 148 551.5H1240" stroke="#FF9327" stroke-width="72" stroke-linecap="round"/>
<line x1="1155.98" y1="451.461" x2="192.937" y2="451.461" stroke="#FF9A5C" stroke-width="16"/>
<line x1="1155.98" y1="401.614" x2="192.937" y2="401.614" stroke="#FF9A5C" stroke-width="16"/>
<rect x="289.725" y="25" width="976.553" height="196.915" rx="8" fill="#F6E4CB"/>
<path d="M1312 36.7512H292C289.791 36.7512 288 38.5421 288 40.7512V228.396C288 230.605 289.791 232.396 292 232.396H1312" stroke="#FB4E0C" stroke-width="72" stroke-linecap="round"/>
<line x1="1233.5" y1="120.445" x2="333.722" y2="120.445" stroke="#FF9A5C" stroke-width="16"/>
<line x1="1233.5" y1="158.828" x2="333.722" y2="158.828" stroke="#FF9A5C" stroke-width="16"/>
</svg>
