<svg width="1920" height="416" viewBox="0 0 1920 416" fill="none" xmlns="http://www.w3.org/2000/svg">
<path d="M411 0H1510L1920 416H0L411 0Z" fill="#FFC784"/>
<path d="M1440.46 96.2551C1439.54 95.0422 1438 94.4512 1436.51 94.7461C1398.2 102.327 1381.99 115.977 1362.69 150.431C1361.92 151.806 1362.03 153.516 1362.98 154.774L1535.17 383.281C1536.91 385.593 1540.47 385.333 1541.91 382.822C1560.93 349.681 1576.71 333.872 1608.88 330.352C1612.07 330.003 1613.8 326.296 1611.87 323.732L1440.46 96.2551Z" fill="#FF9327"/>
<path d="M1555.48 416H1658.85C1660.01 396.816 1655.03 380.305 1628.32 340C1586.61 346.774 1568.3 359.404 1551 408.45L1555.48 416Z" fill="#FF9A5C"/>
<path d="M1348.28 41.5885C1345.53 40.2112 1342.32 42.3201 1342.5 45.3894L1347.84 140.218C1374.58 94.911 1394.07 84.4045 1434.5 84.7918L1348.28 41.5885Z" fill="#FF9A5C"/>
<path d="M1348.13 41.654C1345.38 40.2767 1342.17 42.3856 1342.35 45.4549L1344.38 81.6341C1356.42 66.8812 1364.64 62.1593 1381.08 58.1643L1348.13 41.654Z" fill="#FB4E0C"/>
</svg>
