<svg width="1583" height="1304" viewBox="0 0 1583 1304" fill="none" xmlns="http://www.w3.org/2000/svg">
<ellipse cx="791.5" cy="1230" rx="791.5" ry="74" fill="#943B00" fill-opacity="0.25"/>
<rect x="263" width="1057" height="1212" rx="8" fill="#F6E4CB"/>
<line x1="263" y1="196" x2="1320" y2="196" stroke="#FF9A5C" stroke-width="16"/>
<line x1="263" y1="314" x2="1320" y2="314" stroke="#FF9A5C" stroke-width="16"/>
<line x1="263" y1="432" x2="1320" y2="432" stroke="#FF9A5C" stroke-width="16"/>
<line x1="263" y1="550" x2="1320" y2="550" stroke="#FF9A5C" stroke-width="16"/>
<line x1="263" y1="671" x2="1320" y2="671" stroke="#FF9A5C" stroke-width="16"/>
<line x1="263" y1="786" x2="1320" y2="786" stroke="#FF9A5C" stroke-width="16"/>
<line x1="263" y1="904" x2="1320" y2="904" stroke="#FF9A5C" stroke-width="16"/>
<line x1="263" y1="1022" x2="1320" y2="1022" stroke="#FF9A5C" stroke-width="16"/>
<line x1="263" y1="1140" x2="1320" y2="1140" stroke="#FF9A5C" stroke-width="16"/>
<line x1="376" y1="1212" x2="376" y2="-3.49691e-07" stroke="#FF9A5C" stroke-width="16"/>
<circle cx="320" cy="322" r="40" fill="#FF9A5C"/>
<circle cx="320" cy="656" r="40" fill="#FF9A5C"/>
<circle cx="320" cy="1030" r="40" fill="#FF9A5C"/>
</svg>
